<?xml version="1.0" standalone="no"?>
<!DOCTYPE svg PUBLIC "-//W3C//DTD SVG 20010904//EN"
 "http://www.w3.org/TR/2001/REC-SVG-20010904/DTD/svg10.dtd">
<svg version="1.0" xmlns="http://www.w3.org/2000/svg"
 width="512.000000pt" height="512.000000pt" viewBox="0 0 512.000000 512.000000"
 preserveAspectRatio="xMidYMid meet">
<metadata>
Created by potrace 1.15, written by Peter Selinger 2001-2017
</metadata>
<g transform="translate(0.000000,512.000000) scale(0.100000,-0.100000)"
fill="#000000" stroke="none">
<path d="M590 4383 l1 -738 756 -530 c698 -489 1151 -807 2618 -1837 l540
-380 3 748 c2 590 -1 751 -10 760 -7 7 -308 218 -668 470 -360 251 -1230 859
-1933 1351 -702 491 -1284 893 -1292 893 -13 0 -15 -92 -15 -737z"/>
<path d="M3887 4708 l-597 -412 0 -381 0 -381 597 -419 c328 -231 602 -421
610 -423 11 -3 13 204 13 1212 0 987 -2 1216 -13 1216 -7 0 -282 -186 -610
-412z"/>
<path d="M590 2135 c0 -910 3 -1225 11 -1225 10 0 343 231 1049 728 l155 109
0 389 0 388 -595 418 c-327 229 -601 417 -607 418 -10 0 -13 -251 -13 -1225z"/>
<path d="M590 320 l0 -310 1960 0 1960 0 0 310 0 310 -1960 0 -1960 0 0 -310z"/>
</g>
</svg>
